<svg xmlns="http://www.w3.org/2000/svg" fill="none" viewBox="0 0 333 29" height="29" width="333">
<path fill="#010101" d="M73.7119 21.4821C71.3556 21.4821 69.3047 20.4862 68.2139 18.9094L70.2429 17.0836C71.2247 18.2455 72.5119 18.7019 73.8428 18.7019C75.5227 18.7019 76.3082 18.2455 76.3082 17.1666C76.3082 16.2537 75.8282 15.8595 73.1665 15.2371C70.5702 14.6354 68.7375 13.8055 68.7375 11.0045C68.7375 8.43181 71.0065 6.85498 73.7773 6.85498C75.9809 6.85498 77.5954 7.68489 78.9263 9.07499L76.8973 11.0668C75.9809 10.1331 74.9773 9.61443 73.6901 9.61443C72.1847 9.61443 71.6829 10.2576 71.6829 10.88C71.6829 11.7722 72.2938 12.0627 74.5191 12.5813C76.7664 13.1 79.2317 13.8677 79.2317 16.9591C79.2317 19.6563 77.53 21.4614 73.6901 21.4614L73.7119 21.4821Z"></path>
<path fill="#010101" d="M88.0676 21.4821C84.3804 21.4821 81.8496 18.7642 81.8496 14.1997C81.8496 9.63518 84.4023 6.87573 88.1112 6.87573C91.8202 6.87573 94.3074 9.59368 94.3074 14.1582C94.3074 18.7227 91.7548 21.4821 88.0676 21.4821ZM88.0458 9.67667C86.0604 9.67667 84.7513 11.2742 84.7513 14.1374C84.7513 17.0006 86.1259 18.6397 88.1112 18.6397C90.0966 18.6397 91.4057 17.0421 91.4057 14.1789C91.4057 11.3157 90.0312 9.67667 88.0676 9.67667H88.0458Z"></path>
<path fill="#010101" d="M103.515 21.4827C100.111 21.4827 97.7988 19.1797 97.7988 15.0509V7.10449H100.613V15.0094C100.613 17.2709 101.704 18.7025 103.493 18.7025C105.282 18.7025 106.395 17.3124 106.395 15.0509V7.10449H109.209V15.0094C109.209 19.1174 107.071 21.4827 103.471 21.4827H103.515Z"></path>
<path fill="#010101" d="M122.54 21.2544L117.347 13.5363C116.998 13.0176 116.54 12.3122 116.365 11.9387C116.365 12.4574 116.409 14.2417 116.409 15.0301V21.2544H113.616V7.10449H116.322L121.318 14.5944C121.667 15.1131 122.125 15.8185 122.3 16.192C122.3 15.6733 122.256 13.889 122.256 13.1006V7.10449H125.049V21.2544H122.518H122.54Z"></path>
<path fill="#010101" d="M133.732 21.2544H129.521V7.10449H133.929C137.965 7.10449 140.954 9.01328 140.954 14.1795C140.954 19.3456 137.354 21.2544 133.732 21.2544ZM133.82 9.84319H132.336V18.495H133.732C136.699 18.495 138.052 16.7522 138.052 14.1587C138.052 11.2748 136.83 9.82244 133.841 9.82244H133.82V9.84319Z"></path>
<path fill="#010101" d="M153.193 11.212C152.691 10.2369 151.884 9.67667 150.619 9.67667C148.502 9.67667 147.281 11.544 147.281 14.1582C147.281 16.7724 148.502 18.6397 150.641 18.6397C151.906 18.6397 152.648 18.1002 153.411 16.8346L155.79 18.2455C154.83 20.258 153.128 21.4406 150.553 21.4406C146.866 21.4406 144.379 18.6189 144.379 14.1374C144.379 9.65592 146.953 6.83423 150.662 6.83423C153.324 6.83423 154.939 8.12059 155.833 9.96713L153.215 11.1912L153.193 11.212Z"></path>
<path fill="#010101" d="M159.869 21.2544V7.10449H162.705V18.4742H169.796V21.2752H159.869V21.2544Z"></path>
<path fill="#010101" d="M177.454 21.4821C173.767 21.4821 171.236 18.7642 171.236 14.1997C171.236 9.63518 173.789 6.87573 177.498 6.87573C181.207 6.87573 183.694 9.59368 183.694 14.1582C183.694 18.7227 181.142 21.4821 177.454 21.4821ZM177.433 9.67667C175.447 9.67667 174.138 11.2742 174.138 14.1374C174.138 17.0006 175.513 18.6397 177.476 18.6397C179.44 18.6397 180.771 17.0421 180.771 14.1789C180.771 11.3157 179.396 9.67667 177.411 9.67667H177.433Z"></path>
<path fill="#010101" d="M192.923 21.4827C189.52 21.4827 187.207 19.1797 187.207 15.0509V7.10449H190.021V15.0094C190.021 17.2709 191.112 18.7025 192.901 18.7025C194.69 18.7025 195.803 17.3124 195.803 15.0509V7.10449H198.618V15.0094C198.618 19.1174 196.48 21.4827 192.88 21.4827H192.923Z"></path>
<path fill="#010101" d="M207.389 21.3372H203.178V7.18726H207.585C211.621 7.18726 214.61 9.09605 214.61 14.2622C214.61 19.4284 211.01 21.3372 207.389 21.3372ZM207.476 9.92595H205.992V18.5778H207.389C210.356 18.5778 211.708 16.8349 211.708 14.2415C211.708 11.3575 210.487 9.90521 207.498 9.90521H207.476V9.92595Z"></path>
<path fill="#010101" d="M57.2824 19.1376C57.1515 23.2042 53.4425 26.3371 49.1663 26.3371H29.6614C28.7669 26.3371 28.0469 25.6524 28.0469 24.781V4.80094C28.0469 4.11627 28.3523 3.53533 29.1159 3.18262C29.1159 3.18262 30.905 2 34.6794 2C37.1012 2 39.3484 2.62243 41.2683 3.70131C44.3664 5.42337 46.6136 8.3073 47.3991 11.7514C48.0536 11.5647 48.7518 11.4817 49.4717 11.4817C53.8571 11.4817 57.3915 14.9258 57.2606 19.1169L57.2824 19.1376Z"></path>
<path fill="#010101" d="M25.6035 6.08758C25.538 5.27842 24.3817 5.27842 24.3381 6.08758C23.8145 12.8098 23.3999 19.0964 24.3381 25.7979C24.3817 26.5241 25.5599 26.5241 25.6035 25.7979C26.6071 19.0549 26.1926 12.8721 25.6035 6.08758Z"></path>
<path fill="#010101" d="M21.6544 8.41107C21.5889 7.60191 20.389 7.60191 20.3235 8.41107C19.7126 14.3864 19.5381 19.8223 20.3235 25.7977C20.3671 26.5238 21.5671 26.5238 21.6326 25.7977C22.5271 19.7601 22.3307 14.4694 21.6326 8.41107H21.6544Z"></path>
<path fill="#010101" d="M17.7061 7.80908C17.6406 7.02067 16.4843 7.02067 16.4406 7.80908C15.8297 13.9297 15.5243 19.656 16.4406 25.7766C16.4843 26.5235 17.6406 26.5235 17.7061 25.7766C18.6442 19.5938 18.3606 14.0334 17.7061 7.80908Z"></path>
<path fill="#010101" d="M13.7573 9.57294C13.6919 8.76377 12.4919 8.76377 12.4483 9.57294C11.7719 15.1333 11.641 20.2373 12.4264 25.8184C12.4701 26.5238 13.6482 26.5446 13.7137 25.8184C14.5864 20.1543 14.4555 15.2578 13.7573 9.59368V9.57294Z"></path>
<path fill="#010101" d="M9.78591 13.5979C9.69864 12.8095 8.56413 12.8095 8.49868 13.5979C7.56052 17.7682 7.99687 21.6273 8.54231 25.8183C8.60776 26.503 9.69864 26.503 9.7641 25.8183C10.3532 21.5443 10.8113 17.8304 9.80773 13.5979H9.78591Z"></path>
<path fill="#010101" d="M5.83702 12.9755C5.74975 12.2494 4.5716 12.2286 4.50615 12.9755C3.67708 17.2288 3.96071 21.0049 4.52797 25.2789C4.59342 25.9221 5.74975 25.9221 5.81521 25.2789C6.46973 20.9427 6.75336 17.2911 5.83702 12.9755Z"></path>
<path fill="#010101" d="M1.84447 15.0503C1.73538 14.2619 0.600867 14.2411 0.491779 15.0503C-0.293653 17.9135 -0.0318422 20.2995 0.535415 23.1626C0.644502 23.9303 1.66993 23.9096 1.77902 23.1626C2.45536 20.258 2.78262 17.9342 1.82265 15.0503H1.84447Z"></path>
<path fill="black" d="M241.372 11.8182C241.312 11.2109 241.044 10.728 240.568 10.3693C240.092 10.0107 239.494 9.83132 238.773 9.83132C238.265 9.83132 237.817 9.91832 237.43 10.0923C237.047 10.2663 236.745 10.5078 236.525 10.8168C236.308 11.1222 236.2 11.4702 236.2 11.8608C236.2 12.1484 236.262 12.4006 236.386 12.6172C236.511 12.8338 236.678 13.0202 236.887 13.1765C237.1 13.3292 237.335 13.4606 237.59 13.5707C237.849 13.6808 238.11 13.7731 238.373 13.8477L239.524 14.1779C239.872 14.2738 240.22 14.3963 240.568 14.5455C240.916 14.6946 241.234 14.8828 241.521 15.1101C241.813 15.3338 242.045 15.609 242.219 15.9357C242.397 16.2589 242.485 16.6477 242.485 17.1023C242.485 17.6847 242.335 18.2085 242.033 18.6737C241.731 19.1388 241.298 19.5082 240.733 19.7816C240.168 20.0515 239.492 20.1864 238.703 20.1864C237.961 20.1864 237.317 20.0639 236.77 19.8189C236.223 19.5703 235.793 19.2276 235.481 18.7908C235.168 18.354 234.993 17.848 234.953 17.2727H235.976C236.012 17.7024 236.154 18.0664 236.402 18.3647C236.651 18.663 236.974 18.8903 237.372 19.0465C237.77 19.1992 238.213 19.2756 238.703 19.2756C239.247 19.2756 239.73 19.185 240.152 19.0039C240.578 18.8192 240.912 18.5636 241.154 18.2369C241.399 17.9066 241.521 17.5231 241.521 17.0863C241.521 16.717 241.425 16.408 241.234 16.1594C241.042 15.9073 240.774 15.696 240.429 15.5256C240.088 15.3551 239.692 15.2042 239.241 15.0728L237.936 14.6893C237.081 14.4336 236.417 14.0803 235.944 13.6293C235.472 13.1783 235.236 12.603 235.236 11.9034C235.236 11.3175 235.392 10.8026 235.705 10.3587C236.021 9.91122 236.447 9.56321 236.983 9.31463C237.523 9.0625 238.128 8.93643 238.799 8.93643C239.478 8.93643 240.078 9.06072 240.6 9.3093C241.122 9.55788 241.536 9.90057 241.841 10.3374C242.15 10.7706 242.315 11.2642 242.336 11.8182H241.372ZM254.222 9.98579V9.09091H262.132V9.98579H258.675V20H257.679V9.98579H254.222ZM282.864 14.5455C282.864 15.6818 282.662 16.6708 282.257 17.5124C281.852 18.3505 281.294 19.0004 280.584 19.462C279.878 19.9201 279.064 20.1491 278.145 20.1491C277.225 20.1491 276.41 19.9201 275.7 19.462C274.993 19.0004 274.437 18.3505 274.032 17.5124C273.631 16.6708 273.43 15.6818 273.43 14.5455C273.43 13.4091 273.631 12.4219 274.032 11.5838C274.437 10.7422 274.995 10.0923 275.705 9.63423C276.415 9.17258 277.228 8.94176 278.145 8.94176C279.064 8.94176 279.878 9.17258 280.584 9.63423C281.294 10.0923 281.852 10.7422 282.257 11.5838C282.662 12.4219 282.864 13.4091 282.864 14.5455ZM281.895 14.5455C281.895 13.5689 281.731 12.7326 281.405 12.0366C281.078 11.337 280.632 10.8026 280.068 10.4332C279.503 10.0639 278.862 9.87926 278.145 9.87926C277.431 9.87926 276.792 10.0639 276.227 10.4332C275.662 10.8026 275.215 11.3352 274.885 12.0312C274.558 12.7273 274.395 13.5653 274.395 14.5455C274.395 15.522 274.558 16.3583 274.885 17.0543C275.211 17.7504 275.657 18.2848 276.222 18.6577C276.786 19.027 277.427 19.2116 278.145 19.2116C278.862 19.2116 279.503 19.027 280.068 18.6577C280.636 18.2884 281.083 17.7557 281.41 17.0597C281.737 16.3601 281.898 15.522 281.895 14.5455ZM295.273 20V9.09091H298.794C299.568 9.09091 300.214 9.23118 300.733 9.51172C301.255 9.78871 301.647 10.174 301.91 10.6676C302.176 11.1577 302.31 11.7205 302.31 12.3562C302.31 12.9918 302.176 13.5529 301.91 14.0394C301.647 14.5259 301.257 14.9059 300.738 15.1793C300.22 15.4528 299.577 15.5895 298.81 15.5895H295.811V14.6786H298.783C299.352 14.6786 299.824 14.5845 300.2 14.3963C300.58 14.2081 300.863 13.94 301.047 13.592C301.235 13.244 301.33 12.832 301.33 12.3562C301.33 11.8803 301.235 11.4648 301.047 11.1097C300.859 10.7511 300.575 10.4741 300.195 10.2788C299.819 10.0835 299.343 9.98579 298.767 9.98579H296.269V20H295.273ZM300.083 15.0781L302.768 20H301.617L298.959 15.0781H300.083ZM314.736 20V9.09091H321.064V9.98579H315.732V14.0927H320.729V14.9876H315.732V19.1051H321.171V20H314.736Z"></path>
</svg>
